<?xml version="1.0" encoding="UTF-8" standalone="no"?> <svg width="64" height="64" viewBox="0 0 64 64" fill="none" xmlns="http://www.w3.org/2000/svg">
<path d="M19.7998 53.87C18.8881 53.7057 18.0617 53.23 17.4617 52.5242C16.8616 51.8184 16.5252 50.9263 16.5098 50C16.5098 49.7348 16.4044 49.4804 16.2169 49.2929C16.0293 49.1054 15.775 49 15.5098 49C15.2446 49 14.9902 49.1054 14.8027 49.2929C14.6151 49.4804 14.5098 49.7348 14.5098 50C14.5086 51.4133 15.0114 52.7807 15.9278 53.8566C16.8443 54.9325 18.1143 55.6463 19.5098 55.87H19.6798C19.945 55.8925 20.2083 55.8088 20.4118 55.6372C20.6152 55.4656 20.7422 55.2202 20.7648 54.955C20.7873 54.6898 20.7036 54.4265 20.532 54.223C20.3604 54.0195 20.115 53.8925 19.8498 53.87H19.7998Z" fill="#E6E6E6"/>
<path d="M49.4299 33.3498C49.359 33.2322 49.2646 33.1304 49.1526 33.0509C49.0406 32.9714 48.9134 32.9158 48.7789 32.8875C48.6445 32.8593 48.5057 32.8591 48.3712 32.8869C48.2366 32.9147 48.1093 32.9699 47.997 33.0491C47.8848 33.1283 47.7901 33.2298 47.7188 33.3472C47.6475 33.4646 47.6011 33.5954 47.5826 33.7316C47.5641 33.8677 47.5739 34.0061 47.6113 34.1383C47.6486 34.2705 47.7129 34.3936 47.7999 34.4998C48.3329 35.2653 48.5817 36.193 48.5032 37.1224C48.4247 38.0519 48.0238 38.9247 47.3699 39.5898C47.1836 39.7772 47.0791 40.0307 47.0791 40.2948C47.0791 40.559 47.1836 40.8125 47.3699 40.9998C47.5573 41.1861 47.8107 41.2906 48.0749 41.2906C48.3391 41.2906 48.5925 41.1861 48.7799 40.9998C49.776 40.0078 50.3879 38.6947 50.5069 37.294C50.6259 35.8932 50.2443 34.4957 49.4299 33.3498Z" fill="#E6E6E6"/>
<path d="M32.3498 51.5599C32.2324 51.4996 32.1042 51.4631 31.9726 51.4526C31.841 51.4421 31.7086 51.4578 31.5831 51.4987C31.4576 51.5396 31.3415 51.6049 31.2414 51.691C31.1412 51.777 31.0591 51.882 30.9998 51.9999C30.6538 52.6137 30.1492 53.1232 29.5387 53.4751C28.9282 53.8269 28.2344 54.0082 27.5298 53.9999C27.2646 53.9999 27.0102 54.1052 26.8227 54.2928C26.6351 54.4803 26.5298 54.7347 26.5298 54.9999C26.5298 55.2651 26.6351 55.5194 26.8227 55.707C27.0102 55.8945 27.2646 55.9999 27.5298 55.9999C28.6024 56.0024 29.6556 55.7135 30.5767 55.164C31.4979 54.6144 32.2525 53.8249 32.7598 52.8799C32.8745 52.6494 32.8959 52.3835 32.8196 52.1376C32.7432 51.8918 32.5749 51.6848 32.3498 51.5599V51.5599Z" fill="#E6E6E6"/>
<path d="M41.2098 42.69C40.0948 42.7616 39.022 43.1431 38.1121 43.7915C37.2022 44.4399 36.4914 45.3295 36.0598 46.36C36.0093 46.4815 35.9831 46.6117 35.9829 46.7433C35.9827 46.8749 36.0084 47.0052 36.0585 47.1269C36.1087 47.2485 36.1823 47.3591 36.2752 47.4523C36.368 47.5455 36.4784 47.6195 36.5998 47.67C36.7213 47.7206 36.8515 47.7467 36.9831 47.747C37.1147 47.7472 37.245 47.7215 37.3667 47.6713C37.4883 47.6212 37.5989 47.5476 37.6921 47.4547C37.7853 47.3618 37.8593 47.2515 37.9098 47.13C38.1975 46.4462 38.6697 45.8558 39.2737 45.4249C39.8777 44.994 40.5896 44.7396 41.3298 44.69C41.5951 44.6741 41.8431 44.5535 42.0194 44.3547C42.1957 44.1559 42.2857 43.8953 42.2698 43.63C42.2539 43.3648 42.1333 43.1168 41.9345 42.9405C41.7357 42.7642 41.475 42.6741 41.2098 42.69V42.69Z" fill="#E6E6E6"/>
<path d="M24.5802 51.22H22.3502C21.857 51.2212 21.3689 51.3203 20.9142 51.5115C20.4596 51.7027 20.0473 51.9821 19.7014 52.3336C19.3554 52.6852 19.0826 53.1018 18.8987 53.5595C18.7149 54.0172 18.6236 54.5068 18.6302 55V55.18C18.6329 56.1658 19.0256 57.1104 19.7227 57.8075C20.4198 58.5046 21.3644 58.8973 22.3502 58.9H24.5802C25.566 58.8973 26.5107 58.5046 27.2077 57.8075C27.9048 57.1104 28.2976 56.1658 28.3002 55.18V55C28.3068 54.5068 28.2156 54.0172 28.0317 53.5595C27.8478 53.1018 27.575 52.6852 27.2291 52.3336C26.8831 51.9821 26.4709 51.7027 26.0162 51.5115C25.5615 51.3203 25.0734 51.2212 24.5802 51.22ZM26.3002 55.13C26.3002 55.5861 26.119 56.0236 25.7964 56.3462C25.4739 56.6688 25.0364 56.85 24.5802 56.85H22.3502C21.894 56.85 21.4566 56.6688 21.134 56.3462C20.8114 56.0236 20.6302 55.5861 20.6302 55.13V55C20.6302 54.5429 20.8111 54.1043 21.1334 53.7802C21.4557 53.456 21.8931 53.2726 22.3502 53.27H24.5802C25.0373 53.2726 25.4748 53.456 25.7971 53.7802C26.1193 54.1043 26.3002 54.5429 26.3002 55V55.13Z" fill="#C0BDBA"/>
<path d="M49.16 40.09L49.08 39.92C48.8727 39.4773 48.5802 39.0797 48.2191 38.7501C47.8581 38.4205 47.4357 38.1653 46.976 37.999C46.5162 37.8328 46.0283 37.7588 45.5399 37.7813C45.0516 37.8037 44.5725 37.9222 44.13 38.13L42.13 39.08C41.6809 39.2871 41.2777 39.5816 40.9438 39.9463C40.6099 40.3111 40.3521 40.7387 40.1854 41.2043C40.0188 41.6698 39.9466 42.1639 39.9731 42.6577C39.9997 43.1515 40.1244 43.635 40.34 44.08L40.42 44.24C40.6281 44.6881 40.9232 45.0904 41.2881 45.4236C41.653 45.7567 42.0805 46.014 42.5457 46.1805C43.0109 46.347 43.5045 46.4195 43.9979 46.3937C44.4913 46.3678 44.9747 46.2442 45.42 46.03L47.42 45.09C47.8631 44.8819 48.2608 44.5884 48.5903 44.2264C48.9197 43.8643 49.1745 43.4407 49.34 42.98C49.5069 42.5112 49.5771 42.0133 49.5462 41.5166C49.5152 41.0198 49.3838 40.5345 49.16 40.09V40.09ZM46.52 43.22L44.52 44.22C44.1059 44.4115 43.633 44.4318 43.2041 44.2763C42.7753 44.1209 42.4251 43.8023 42.23 43.39L42.15 43.23C41.9603 42.8142 41.9388 42.3413 42.09 41.91C42.1629 41.6918 42.2794 41.4906 42.4324 41.3187C42.5854 41.1468 42.7717 41.0078 42.98 40.91L44.98 39.91C45.394 39.7185 45.8669 39.6982 46.2958 39.8537C46.7247 40.0091 47.0748 40.3277 47.27 40.74L47.35 40.9C47.4495 41.1066 47.5069 41.3308 47.519 41.5598C47.5311 41.7887 47.4975 42.0178 47.4203 42.2336C47.3431 42.4495 47.2237 42.6479 47.0692 42.8172C46.9146 42.9865 46.7279 43.1235 46.52 43.22V43.22Z" fill="#C0BDBA"/>
<path d="M37.2999 45.68C36.931 45.3594 36.5025 45.1146 36.0389 44.9597C35.5753 44.8047 35.0858 44.7427 34.5982 44.777C34.1106 44.8114 33.6346 44.9415 33.1974 45.1599C32.7601 45.3783 32.3702 45.6808 32.0499 46.05L30.5899 47.73C30.2673 48.1013 30.0218 48.5331 29.8676 49.0002C29.7134 49.4673 29.6537 49.9604 29.6918 50.4508C29.73 50.9412 29.8653 51.4191 30.0898 51.8567C30.3144 52.2944 30.6238 52.683 30.9999 53L31.1399 53.12C31.8861 53.7649 32.8574 54.0881 33.8413 54.0188C34.8252 53.9494 35.7415 53.4932 36.3899 52.75L37.8599 51.07C38.5049 50.3238 38.828 49.3525 38.7587 48.3686C38.6894 47.3847 38.2332 46.4683 37.4899 45.82L37.2999 45.68ZM36.2999 49.74L34.8299 51.42C34.6817 51.591 34.5012 51.731 34.2987 51.8322C34.0963 51.9333 33.8759 51.9935 33.6502 52.0093C33.4244 52.0251 33.1978 51.9961 32.9832 51.9242C32.7687 51.8522 32.5705 51.7387 32.3999 51.59L32.2699 51.47C32.0974 51.3229 31.9563 51.1426 31.855 50.9399C31.7536 50.7372 31.6941 50.5162 31.6799 50.29C31.6594 50.0577 31.686 49.8238 31.7582 49.6021C31.8303 49.3804 31.9466 49.1756 32.0999 49L33.5599 47.32C33.8665 46.9797 34.2956 46.7749 34.753 46.7505C35.2104 46.7262 35.6588 46.8842 35.9999 47.19L36.1399 47.31C36.4815 47.6121 36.6899 48.037 36.7199 48.492C36.7498 48.9471 36.5989 49.3956 36.2999 49.74V49.74Z" fill="#C0BDBA"/>
<path d="M21.8199 42.3201C21.5547 42.3201 21.3003 42.4254 21.1128 42.613C20.9253 42.8005 20.8199 43.0549 20.8199 43.3201V44.0001L18.2499 44.7501L14.7099 45.2001L10.1999 43.6901V43.3201C10.1999 43.0549 10.0945 42.8005 9.907 42.613C9.71947 42.4254 9.46511 42.3201 9.1999 42.3201C8.93468 42.3201 8.68033 42.4254 8.49279 42.613C8.30525 42.8005 8.1999 43.0549 8.1999 43.3201V46.7601C8.19461 47.315 8.29935 47.8654 8.50805 48.3796C8.71675 48.8938 9.02528 49.3616 9.41582 49.7558C9.80635 50.1501 10.2711 50.463 10.7833 50.6766C11.2955 50.8901 11.845 51.0001 12.3999 51.0001H18.6199C19.7338 51.0001 20.8021 50.5576 21.5897 49.7699C22.3774 48.9823 22.8199 47.914 22.8199 46.8001V43.3201C22.8199 43.0549 22.7145 42.8005 22.527 42.613C22.3395 42.4254 22.0851 42.3201 21.8199 42.3201Z" fill="#42393C"/>
<path d="M54.8002 26.29C54.535 26.29 54.2806 26.3954 54.0931 26.5829C53.9055 26.7705 53.8002 27.0248 53.8002 27.29V28.7H43.1802V27.29C43.1802 27.0248 43.0748 26.7705 42.8873 26.5829C42.6997 26.3954 42.4454 26.29 42.1802 26.29C41.915 26.29 41.6606 26.3954 41.4731 26.5829C41.2855 26.7705 41.1802 27.0248 41.1802 27.29V30.72C41.1802 31.2716 41.2888 31.8177 41.4999 32.3273C41.711 32.8369 42.0203 33.2999 42.4103 33.6899C42.8003 34.0799 43.2633 34.3893 43.7729 34.6003C44.2825 34.8114 44.8286 34.92 45.3802 34.92H51.6002C52.1517 34.92 52.6979 34.8114 53.2074 34.6003C53.717 34.3893 54.18 34.0799 54.57 33.6899C54.96 33.2999 55.2694 32.8369 55.4805 32.3273C55.6915 31.8177 55.8002 31.2716 55.8002 30.72V27.29C55.8002 27.0248 55.6948 26.7705 55.5073 26.5829C55.3197 26.3954 55.0654 26.29 54.8002 26.29Z" fill="#42393C"/>
<path d="M15.51 21.19C13.0349 21.186 10.6143 21.9163 8.55436 23.2885C6.49447 24.6608 4.88792 26.6132 3.938 28.8987C2.98808 31.1843 2.73749 33.7002 3.21793 36.1283C3.69837 38.5563 4.88825 40.7872 6.63701 42.5388C8.38576 44.2903 10.6148 45.4838 13.042 45.9681C15.4693 46.4524 17.9857 46.2059 20.2727 45.2596C22.5598 44.3133 24.5148 42.7099 25.8903 40.6522C27.2658 38.5945 28 36.1751 28 33.7C27.9973 30.3864 26.6812 27.209 24.34 24.864C21.9989 22.5191 18.8236 21.1979 15.51 21.19V21.19ZM15.51 44.19C13.4296 44.1939 11.3948 43.5804 9.66343 42.427C7.93201 41.2737 6.58181 39.6325 5.78386 37.7112C4.9859 35.7899 4.77609 33.6751 5.18098 31.6345C5.58587 29.5939 6.58726 27.7193 8.05831 26.2483C9.52937 24.7772 11.4039 23.7758 13.4445 23.3709C15.4851 22.9661 17.6 23.1759 19.5212 23.9738C21.4425 24.7718 23.0837 26.122 24.2371 27.8534C25.3904 29.5848 26.0039 31.6196 26 33.7C25.9974 36.4831 24.8919 39.1518 22.9258 41.1217C20.9597 43.0915 18.2931 44.202 15.51 44.21V44.19Z" fill="#C0BDBA"/>
<path d="M15.5101 24.5601C13.7024 24.5601 11.9353 25.0961 10.4322 26.1004C8.92914 27.1047 7.75765 28.5322 7.06586 30.2023C6.37408 31.8725 6.19307 33.7102 6.54574 35.4832C6.89841 37.2562 7.76891 38.8848 9.04717 40.163C10.3254 41.4413 11.954 42.3118 13.727 42.6644C15.5 43.0171 17.3377 42.8361 19.0078 42.1443C20.678 41.4525 22.1054 40.281 23.1098 38.778C24.1141 37.2749 24.6501 35.5078 24.6501 33.7001C24.6475 31.2768 23.6837 28.9535 21.9702 27.24C20.2566 25.5265 17.9334 24.5627 15.5101 24.5601V24.5601ZM15.5101 40.8401C14.098 40.8401 12.7175 40.4213 11.5433 39.6368C10.3692 38.8522 9.45403 37.7371 8.91362 36.4324C8.37321 35.1278 8.23182 33.6921 8.50731 32.3071C8.78281 30.9221 9.46283 29.6499 10.4614 28.6513C11.4599 27.6528 12.7322 26.9728 14.1172 26.6973C15.5022 26.4218 16.9378 26.5631 18.2425 27.1036C19.5471 27.644 20.6623 28.5591 21.4468 29.7333C22.2314 30.9075 22.6501 32.2879 22.6501 33.7001C22.6475 35.5929 21.8944 37.4074 20.5559 38.7459C19.2175 40.0843 17.403 40.8374 15.5101 40.8401V40.8401Z" fill="#E6E6E6"/>
<path d="M48.49 5.1499C46.0157 5.1499 43.5971 5.8836 41.5398 7.25822C39.4825 8.63283 37.8791 10.5866 36.9323 12.8725C35.9854 15.1584 35.7377 17.6738 36.2204 20.1005C36.7031 22.5272 37.8945 24.7563 39.6441 26.5058C41.3936 28.2554 43.6227 29.4468 46.0494 29.9295C48.4761 30.4122 50.9915 30.1645 53.2774 29.2176C55.5633 28.2708 57.5171 26.6673 58.8917 24.6101C60.2663 22.5528 61 20.1341 61 17.6599C60.9973 14.3429 59.6785 11.1624 57.333 8.81692C54.9875 6.47142 51.807 5.15255 48.49 5.1499V5.1499ZM48.49 28.1499C46.4105 28.1499 44.3777 27.533 42.6489 26.3773C40.9201 25.2215 39.573 23.5789 38.7781 21.6573C37.9832 19.7357 37.7763 17.6214 38.1834 15.5821C38.5906 13.5429 39.5935 11.6702 41.0654 10.2011C42.5372 8.73208 44.4118 7.73269 46.4519 7.32942C48.4919 6.92615 50.6058 7.13714 52.5259 7.93568C54.446 8.73423 56.086 10.0844 57.2385 11.8154C58.3909 13.5464 59.0039 15.5804 59 17.6599C58.9973 20.4465 57.8892 23.1182 55.9188 25.0887C53.9483 27.0591 51.2766 28.1673 48.49 28.1699V28.1499Z" fill="#C0BDBA"/>
<path d="M48.4901 8.52002C46.6824 8.52002 44.9153 9.05607 43.4122 10.0604C41.9091 11.0647 40.7376 12.4922 40.0458 14.1623C39.3541 15.8324 39.1731 17.6702 39.5257 19.4431C39.8784 21.2161 40.7489 22.8447 42.0271 24.123C43.3054 25.4012 44.934 26.2717 46.707 26.6244C48.48 26.9771 50.3177 26.7961 51.9878 26.1043C53.6579 25.4125 55.0854 24.241 56.0897 22.7379C57.0941 21.2349 57.6301 19.4677 57.6301 17.66C57.6275 15.2368 56.6636 12.9135 54.9501 11.2C53.2366 9.48648 50.9134 8.52267 48.4901 8.52002V8.52002ZM48.4901 24.8C47.0779 24.8 45.6975 24.3813 44.5233 23.5967C43.3492 22.8122 42.434 21.697 41.8936 20.3924C41.3532 19.0877 41.2118 17.6521 41.4873 16.2671C41.7628 14.8821 42.4428 13.6098 43.4414 12.6113C44.4399 11.6127 45.7121 10.9327 47.0972 10.6572C48.4822 10.3817 49.9178 10.5231 51.2225 11.0635C52.5271 11.6039 53.6422 12.5191 54.4268 13.6932C55.2113 14.8674 55.6301 16.2479 55.6301 17.66C55.6275 19.5529 54.8744 21.3674 53.5359 22.7058C52.1975 24.0443 50.3829 24.7974 48.4901 24.8V24.8Z" fill="#E6E6E6"/>
<path d="M24.6501 33.7001C24.6501 31.8923 24.1141 30.1252 23.1098 28.6222C22.1054 27.1191 20.678 25.9476 19.0078 25.2558C17.3377 24.564 15.5 24.383 13.727 24.7357C11.954 25.0884 10.3254 25.9589 9.04717 27.2371C7.76891 28.5154 6.89841 30.144 6.54574 31.9169C6.19307 33.6899 6.37408 35.5277 7.06586 37.1978C7.75765 38.8679 8.92914 40.2954 10.4322 41.2997C11.9353 42.304 13.7024 42.8401 15.5101 42.8401C17.9334 42.8374 20.2566 41.8736 21.9702 40.1601C23.6837 38.4466 24.6475 36.1233 24.6501 33.7001V33.7001ZM8.37012 33.7001C8.37012 32.2879 8.78888 30.9075 9.57343 29.7333C10.358 28.5591 11.4731 27.644 12.7778 27.1036C14.0824 26.5632 15.518 26.4218 16.9031 26.6973C18.2881 26.9728 19.5603 27.6528 20.5589 28.6513C21.5574 29.6499 22.2374 30.9221 22.5129 32.3071C22.7884 33.6921 22.647 35.1278 22.1066 36.4324C21.5662 37.7371 20.6511 38.8522 19.4769 39.6368C18.3027 40.4213 16.9223 40.8401 15.5101 40.8401C14.5725 40.8401 13.644 40.6554 12.7778 40.2966C11.9115 39.9377 11.1244 39.4118 10.4614 38.7488C9.79837 38.0858 9.27244 37.2987 8.91362 36.4324C8.5548 35.5662 8.37012 34.6377 8.37012 33.7001V33.7001Z" fill="black"/>
<path d="M60.9998 17.66C61.0036 15.5163 60.4564 13.4077 59.4109 11.5363C58.3653 9.66491 56.8565 8.0936 55.029 6.97308C53.2015 5.85256 51.1168 5.22043 48.9747 5.13733C46.8327 5.05424 44.7053 5.52296 42.7965 6.49854C40.8877 7.47412 39.2616 8.92383 38.0742 10.7086C36.8869 12.4933 36.178 14.5533 36.0157 16.6908C35.8534 18.8283 36.2431 20.9716 37.1474 22.9152C38.0516 24.8588 39.4402 26.5374 41.1798 27.79V30.72C41.1798 31.2715 41.2884 31.8177 41.4995 32.3272C41.7106 32.8368 42.0199 33.2998 42.4099 33.6898C42.7999 34.0798 43.2629 34.3892 43.7725 34.6003C44.2821 34.8113 44.8282 34.92 45.3798 34.92H47.9998C48.3053 35.4905 48.4651 36.1277 48.4651 36.775C48.4651 37.4222 48.3053 38.0594 47.9998 38.63C47.4584 38.1848 46.8022 37.9017 46.1069 37.8133C45.4116 37.7248 44.7054 37.8346 44.0698 38.13L42.0698 39.08C41.3642 39.4176 40.7838 39.9702 40.4119 40.6583C40.0399 41.3464 39.8957 42.1347 39.9998 42.91C38.6547 43.2803 37.4808 44.1077 36.6798 45.25C35.9323 44.8296 35.0627 44.6796 34.2176 44.8253C33.3725 44.971 32.6034 45.4035 32.0398 46.05L30.5798 47.73C29.9978 48.4038 29.6775 49.2645 29.6775 50.155C29.6775 51.0454 29.9978 51.9061 30.5798 52.58C29.971 53.33 29.1114 53.8344 28.1598 54C27.949 53.2106 27.4841 52.5127 26.8371 52.0138C26.19 51.515 25.3968 51.243 24.5798 51.24H22.3498C21.6045 51.2425 20.8771 51.4688 20.262 51.8896C19.6468 52.3104 19.1723 52.9062 18.8998 53.6C18.3514 53.3667 17.8636 53.0112 17.4737 52.5606C17.0837 52.1099 16.8019 51.5761 16.6498 51H18.6498C19.7637 51 20.832 50.5575 21.6196 49.7698C22.4073 48.9822 22.8498 47.9139 22.8498 46.8V43.83C24.9974 42.2836 26.5993 40.096 27.4251 37.5817C28.2509 35.0675 28.2581 32.3561 27.4457 29.8375C26.6333 27.3189 25.0431 25.1228 22.9038 23.565C20.7644 22.0072 18.1862 21.1679 15.5398 21.1679C12.8934 21.1679 10.3151 22.0072 8.17581 23.565C6.03649 25.1228 4.44628 27.3189 3.63386 29.8375C2.82144 32.3561 2.82866 35.0675 3.65448 37.5817C4.48031 40.096 6.08219 42.2836 8.22978 43.83V46.76C8.22451 47.3124 8.32826 47.8604 8.53509 48.3726C8.74192 48.8848 9.04778 49.3512 9.43513 49.7451C9.82248 50.139 10.2837 50.4525 10.7925 50.6679C11.3012 50.8832 11.8474 50.996 12.3998 51H14.5998C14.7816 52.0795 15.2591 53.0875 15.9794 53.9119C16.6997 54.7363 17.6344 55.3449 18.6798 55.67C18.8004 56.559 19.2382 57.3746 19.9126 57.9663C20.587 58.558 21.4526 58.886 22.3498 58.89H24.5798C25.4193 58.8863 26.233 58.5987 26.8884 58.074C27.5438 57.5493 28.0025 56.8184 28.1898 56C28.9712 55.9125 29.7274 55.6703 30.4142 55.2874C31.1009 54.9045 31.7046 54.3887 32.1898 53.77C32.9005 54.0494 33.68 54.1034 34.4225 53.9245C35.1649 53.7456 35.8343 53.3425 36.3398 52.77L37.8098 51.09C38.3264 50.4897 38.6379 49.7402 38.6991 48.9507C38.7602 48.1611 38.5678 47.3726 38.1498 46.7C38.4278 46.2233 38.8014 45.8094 39.2471 45.4841C39.6929 45.1588 40.2011 44.9293 40.7398 44.81C41.2504 45.5129 41.9898 46.0161 42.831 46.2333C43.6722 46.4504 44.5628 46.3679 45.3498 46L47.3498 45.06C48.1856 44.6628 48.8435 43.9684 49.1948 43.1122C49.5461 42.2561 49.5657 41.2998 49.2498 40.43C49.8441 39.6618 50.2406 38.7595 50.4045 37.8022C50.5684 36.8449 50.4946 35.8621 50.1898 34.94H51.5998C52.7137 34.94 53.782 34.4975 54.5696 33.7098C55.3573 32.9222 55.7998 31.8539 55.7998 30.74V27.79C57.4068 26.6339 58.7162 25.1126 59.6202 23.3514C60.5243 21.5903 60.9971 19.6396 60.9998 17.66ZM4.99979 33.7C4.99979 31.6213 5.61619 29.5893 6.77104 27.8609C7.92589 26.1326 9.56733 24.7855 11.4878 23.99C13.4082 23.1945 15.5214 22.9864 17.5602 23.3919C19.5989 23.7974 21.4716 24.7984 22.9415 26.2683C24.4113 27.7381 25.4123 29.6108 25.8178 31.6496C26.2234 33.6883 26.0152 35.8015 25.2198 37.722C24.4243 39.6424 23.0772 41.2839 21.3488 42.4387C19.6205 43.5936 17.5885 44.21 15.5098 44.21C12.7232 44.2073 10.0515 43.0992 8.08102 41.1287C6.11058 39.1583 5.00243 36.4866 4.99979 33.7V33.7ZM10.1998 46.76V45C11.8585 45.7899 13.6726 46.1998 15.5098 46.1998C17.347 46.1998 19.1611 45.7899 20.8198 45V46.75C20.8172 47.3326 20.5845 47.8907 20.1725 48.3027C19.7605 48.7147 19.2025 48.9473 18.6198 48.95H12.3998C11.818 48.95 11.26 48.7196 10.8477 48.3091C10.4354 47.8987 10.2024 47.3417 10.1998 46.76V46.76ZM26.2998 55.13C26.2998 55.5861 26.1186 56.0236 25.796 56.3462C25.4734 56.6687 25.036 56.85 24.5798 56.85H22.3498C21.8917 56.8159 21.4634 56.6099 21.1509 56.2733C20.8383 55.9367 20.6646 55.4943 20.6646 55.035C20.6646 54.5756 20.8383 54.1332 21.1509 53.7966C21.4634 53.46 21.8917 53.254 22.3498 53.22H24.5798C24.8216 53.2216 25.0605 53.2736 25.2811 53.3727C25.5017 53.4718 25.6993 53.6158 25.8611 53.7956C26.023 53.9753 26.1456 54.1868 26.2211 54.4165C26.2966 54.6463 26.3234 54.8893 26.2998 55.13ZM36.2998 49.74L34.8298 51.42C34.5089 51.782 34.0573 52.0017 33.5744 52.0308C33.0915 52.0598 32.6168 51.8959 32.2548 51.575C31.8928 51.2541 31.6731 50.8025 31.644 50.3196C31.6149 49.8367 31.7789 49.362 32.0998 49C32.8498 48.27 33.6998 46.65 34.8598 46.73C35.2103 46.7262 35.5547 46.8226 35.8522 47.0078C36.1498 47.1931 36.3883 47.4595 36.5396 47.7758C36.6909 48.092 36.7487 48.4449 36.7062 48.7929C36.6637 49.1408 36.5227 49.4694 36.2998 49.74ZM46.5198 43.22L44.5198 44.22C44.0782 44.4215 43.5746 44.4394 43.1199 44.2697C42.6651 44.1 42.2964 43.7565 42.0948 43.315C41.8932 42.8734 41.8753 42.3698 42.0451 41.915C42.2148 41.4603 42.5582 41.0915 42.9998 40.89C43.5198 40.7 45.1898 39.71 45.7498 39.78C46.1488 39.8008 46.53 39.9516 46.8353 40.2094C47.1405 40.4672 47.353 40.8178 47.4403 41.2077C47.5275 41.5976 47.4848 42.0054 47.3186 42.3687C47.1524 42.7321 46.8718 43.031 46.5198 43.22V43.22ZM53.7998 30.72C53.8011 31.0092 53.7451 31.2959 53.635 31.5634C53.5249 31.8309 53.3629 32.074 53.1584 32.2785C52.9538 32.4831 52.7108 32.6451 52.4433 32.7552C52.1757 32.8653 51.8891 32.9213 51.5998 32.92H45.3798C45.0909 32.92 44.8048 32.8631 44.5379 32.7525C44.271 32.6419 44.0284 32.4799 43.8242 32.2756C43.6199 32.0713 43.4578 31.8288 43.3473 31.5619C43.2367 31.2949 43.1798 31.0089 43.1798 30.72V29C44.8385 29.7899 46.6526 30.1998 48.4898 30.1998C50.327 30.1998 52.1411 29.7899 53.7998 29V30.72ZM48.4898 28.17C46.4111 28.17 44.3791 27.5536 42.6507 26.3987C40.9224 25.2439 39.5753 23.6024 38.7798 21.682C37.9843 19.7615 37.7762 17.6483 38.1817 15.6096C38.5873 13.5708 39.5882 11.6981 41.0581 10.2283C42.5279 8.75842 44.4006 7.75744 46.4394 7.35191C48.4781 6.94638 50.5913 7.15451 52.5118 7.94999C54.4322 8.74546 56.0737 10.0926 57.2285 11.8209C58.3834 13.5493 58.9998 15.5813 58.9998 17.66C58.9971 20.4466 57.889 23.1183 55.9186 25.0887C53.9481 27.0592 51.2764 28.1673 48.4898 28.17Z" fill="black"/>
<path d="M48.4901 8.52002C46.6824 8.52002 44.9153 9.05607 43.4122 10.0604C41.9091 11.0647 40.7376 12.4922 40.0458 14.1623C39.3541 15.8324 39.1731 17.6702 39.5257 19.4431C39.8784 21.2161 40.7489 22.8447 42.0271 24.123C43.3054 25.4012 44.934 26.2717 46.707 26.6244C48.48 26.9771 50.3177 26.7961 51.9878 26.1043C53.6579 25.4125 55.0854 24.241 56.0897 22.7379C57.0941 21.2349 57.6301 19.4677 57.6301 17.66C57.6275 15.2368 56.6636 12.9135 54.9501 11.2C53.2366 9.48648 50.9134 8.52267 48.4901 8.52002V8.52002ZM48.4901 24.8C47.0779 24.8 45.6975 24.3813 44.5233 23.5967C43.3492 22.8122 42.434 21.697 41.8936 20.3924C41.3532 19.0877 41.2118 17.6521 41.4873 16.2671C41.7628 14.8821 42.4428 13.6098 43.4414 12.6113C44.4399 11.6127 45.7121 10.9327 47.0972 10.6572C48.4822 10.3817 49.9178 10.5231 51.2225 11.0635C52.5271 11.6039 53.6422 12.5191 54.4268 13.6932C55.2113 14.8674 55.6301 16.2479 55.6301 17.66C55.6275 19.5529 54.8744 21.3674 53.5359 22.7058C52.1975 24.0443 50.3829 24.7974 48.4901 24.8V24.8Z" fill="black"/>
</svg>
